# xmcd
# Track frame offsets:
# 183
# 12585
# 24853
# 35633
# 50270
# 66035
# 79928
# 96583
# 107185
# 123038
#
# Disc length: 1776 seconds
# Revision: 2
# Processed by: cddbd v1.4PL0 Copyright (c) Steve Scherf et al.
# Submitted via: VisiTrax 2.9.5.181 - For more info visit www.synapsa.com
#
DISCID=7d06ee0a
DTITLE=Hank Williams Jr. - High Notes
DYEAR=1982
DGENRE=
TTITLE0=If Heaven Ain't A Lot Like Dixie
TTITLE1=Whiskey On Ice
TTITLE2=High And Pressurized
TTITLE3=I Can't Change My Tune
TTITLE4=The South's Gonna Rattle Again
TTITLE5=Ain't Makin' No Headlines (Here Without You)
TTITLE6=I've Been Down
TTITLE7=If You Wanna Get To Heaven
TTITLE8=Norwegian Wood (This Bird Has Flown)
TTITLE9=Honky Tonkin'
EXTD=
EXTT0=
EXTT1=
EXTT2=
EXTT3=
EXTT4=
EXTT5=
EXTT6=
EXTT7=
EXTT8=
EXTT9=
PLAYORDER=
